<svg xmlns="http://www.w3.org/2000/svg" viewBox="0 0 48 60"><path d="M35.8 48H1c-.6 0-1-.4-1-1V23c0-.4.2-.7.6-.9l22.8-10.3c.2-.1.5-.1.7 0l12 4.2c.4.1.7.5.7.9V47c0 .6-.4 1-1 1zM2 46h32.8V17.6l-11-3.8L2 23.6V46z"/><path d="M23.7 48c-.6 0-1-.4-1-1V13.5c0-.6.4-1 1-1s1 .4 1 1V47c0 .6-.4 1-1 1zM4.5 28c-.4 0-.8-.3-1-.7-.2-.5.1-1.1.7-1.3l14.2-4.4c.5-.2 1.1.1 1.3.7.2.5-.1 1.1-.7 1.3L4.8 28h-.3zM4.5 33.3c-.5 0-.9-.3-1-.8-.1-.5.2-1.1.8-1.2l14.2-3c.5-.1 1.1.2 1.2.8.1.5-.2 1.1-.8 1.2l-14.2 3h-.2zM4.5 38.5c-.5 0-.9-.4-1-.9-.1-.5.3-1 .9-1.1L18.6 35c.5-.1 1 .3 1.1.9.1.5-.3 1-.9 1.1L4.6 38.5h-.1zM18.7 43.8H4.5c-.6 0-1-.4-1-1s.4-1 1-1h14.2c.6 0 1 .4 1 1s-.4 1-1 1z"/><path d="M47 48H31.7c-.6 0-1-.4-1-1s.4-1 1-1H46V6.5L32.4 2.1l-13 5.8v6.7c0 .6-.4 1-1 1s-1-.4-1-1V7.2c0-.4.2-.8.6-.9L31.9.1c.2-.1.5-.1.7-.1l14.7 4.8c.4.2.7.6.7 1V47c0 .6-.4 1-1 1z"/><path d="M41 13.7c-.6 0-1-.4-1-1V8.8c0-.6.4-1 1-1s1 .4 1 1v3.9c0 .6-.4 1-1 1zM41 20.7c-.6 0-1-.4-1-1v-3.9c0-.6.4-1 1-1s1 .4 1 1v3.9c0 .6-.4 1-1 1zM41 27.8c-.6 0-1-.4-1-1v-4c0-.6.4-1 1-1s1 .4 1 1v4c0 .6-.4 1-1 1zM41 34.8c-.6 0-1-.4-1-1v-3.9c0-.6.4-1 1-1s1 .4 1 1v3.9c0 .6-.4 1-1 1zM41 41.8c-.6 0-1-.4-1-1v-3.9c0-.6.4-1 1-1s1 .4 1 1v3.9c0 .6-.4 1-1 1z"/><text y="63" font-size="5" font-weight="bold" font-family="'Helvetica Neue', Helvetica, Arial-Unicode, Arial, Sans-serif">Created by Creative Stall</text><text y="68" font-size="5" font-weight="bold" font-family="'Helvetica Neue', Helvetica, Arial-Unicode, Arial, Sans-serif">from the Noun Project</text></svg>