<svg xmlns="http://www.w3.org/2000/svg" viewBox="0 0 18 18"><path d="M18 9c0-.338-.022-.67-.06-1h-1.01A7.992 7.992 0 0 0 10 1.07V.06C9.67.02 9.338 0 9 0s-.67.022-1 .06v1.01A7.992 7.992 0 0 0 1.07 8H.06C.02 8.33 0 8.662 0 9s.022.67.06 1h1.01A7.992 7.992 0 0 0 8 16.93v1.012c.33.036.662.058 1 .058s.67-.022 1-.06v-1.01A7.994 7.994 0 0 0 16.93 10h1.012A9.15 9.15 0 0 0 18 9zm-8 5.91V14a1 1 0 0 0-2 0v.91A5.993 5.993 0 0 1 3.09 10H4a1 1 0 0 0 0-2h-.91A6 6 0 0 1 8 3.09V4a1 1 0 0 0 2 0v-.91A5.994 5.994 0 0 1 14.91 8H14a1 1 0 0 0 0 2h.91A5.994 5.994 0 0 1 10 14.91z"/></svg>