<svg xmlns="http://www.w3.org/2000/svg" viewBox="0 0 95.1 56.2"><path d="M47.5 37.4c-2.7 0-5.4-.4-8-1.1l-22.4-6.7v15.3c0 2.8 1.8 5.2 4.5 6l9.8 2.9c10.8 3.2 22.2 3.2 33 0l9.8-2.9c2.7-.8 4.5-3.2 4.5-6V29.4l-23.2 6.9c-2.6.8-5.3 1.1-8 1.1z"/><path d="M93 12.6L53.5.9C49.6-.3 45.4-.3 41.4.9L2 12.6c-2.7.8-2.7 4.7 0 5.5l39.5 11.7c3.9 1.2 8.1 1.2 12.1 0l33.8-10v8.9c-.7.4-1.2 1.1-1.2 1.9V33c0 .9.5 1.7 1.3 2l-2.1 4.9c-.3.7.1 1.4.9 1.5l2.2.2h1.3l2.2-.2c.7-.1 1.1-.8.9-1.5L90.8 35c.8-.4 1.3-1.1 1.3-2v-2.4c0-.8-.5-1.5-1.2-1.9v-9.9l2.2-.7c2.6-.9 2.6-4.7-.1-5.5z"/></svg>