<svg version="1" xmlns="http://www.w3.org/2000/svg" width="99.018" height="100" viewBox="0 0 99.018 100"><path d="M24.406 27.184c3.718 0 6.715-2.997 6.715-6.714s-2.996-6.738-6.714-6.738c-3.694 0-6.714 3.02-6.714 6.738s3.02 6.714 6.714 6.714zM14.067 28.578a1.91 1.91 0 0 0-1.395-2.323l-5.6-1.37c-1.044-.21-2.09.394-2.323 1.44L.055 45.794c-.256.998.372 2.043 1.417 2.3l5.6 1.347c1.022.255 2.044-.372 2.3-1.417l4.694-19.447zM1.404 93.797c-.046.324-.093.65-.093.952a4.72 4.72 0 0 0 4.718 4.716c2.16 0 3.95-1.418 4.53-3.37L18.69 62.5l7.714 33.41c.51 2.045 2.394 3.556 4.577 3.556 2.626 0 4.74-2.114 4.74-4.717 0-.35-.045-.698-.115-1.023l-10.618-44.4.906-3.88.674 3.066c.65 1.998 2.486 2.208 2.486 2.208l10.943 2.79c.21.046.418.046.65.046 1.766 0 3.23-1.44 3.23-3.23 0-1.51-1.07-2.81-2.487-3.136l-9.48-2.37-2.603-10.57c-1.23-5.88-6.854-5.74-6.854-5.74-5.483-.14-6.854 5.6-6.854 5.6L1.403 93.796zM91.117 96.073c0-2.184 1.72-3.95 3.95-3.95 2.16 0 3.95 1.767 3.95 3.95 0 2.16-1.79 3.927-3.95 3.927a3.913 3.913 0 0 1-3.95-3.927zM95.067 85.48a3.913 3.913 0 0 1-3.95-3.928c0-2.184 1.72-3.95 3.95-3.95 2.16 0 3.95 1.767 3.95 3.95 0 2.16-1.788 3.927-3.95 3.927zM95.044 70.957a3.927 3.927 0 0 1-3.95-3.927 3.917 3.917 0 0 1 3.95-3.95c2.16 0 3.95 1.743 3.95 3.95 0 2.16-1.79 3.927-3.95 3.927zM95.044 56.436a3.927 3.927 0 0 1-3.95-3.926 3.917 3.917 0 0 1 3.95-3.95c2.16 0 3.95 1.742 3.95 3.95 0 2.16-1.79 3.926-3.95 3.926zM95.044 41.914a3.927 3.927 0 0 1-3.95-3.926 3.917 3.917 0 0 1 3.95-3.95 3.927 3.927 0 0 1 3.927 3.95 3.937 3.937 0 0 1-3.926 3.926zM95.044 27.393a3.913 3.913 0 0 1-3.95-3.927c0-2.23 1.72-3.95 3.95-3.95 2.16 0 3.927 1.72 3.927 3.95a3.937 3.937 0 0 1-3.926 3.927zM91.094 8.945c0-2.23 1.72-3.95 3.95-3.95 2.16 0 3.927 1.72 3.927 3.95a3.937 3.937 0 0 1-3.926 3.926 3.91 3.91 0 0 1-3.95-3.925zM66.002 4.972c2.184 0 3.926 1.743 3.926 3.974 0 2.137-1.742 3.926-3.926 3.926-2.185 0-3.95-1.79-3.95-3.926 0-2.23 1.765-3.974 3.95-3.974zM80.523 4.95c2.184 0 3.926 1.765 3.926 3.972 0 2.138-1.743 3.927-3.927 3.927-2.185 0-3.95-1.79-3.95-3.928a3.953 3.953 0 0 1 3.95-3.973zM66.002 92.1a3.96 3.96 0 0 1 3.95 3.95c0 2.16-1.79 3.927-3.95 3.927a3.927 3.927 0 0 1-3.95-3.927 3.93 3.93 0 0 1 3.95-3.95zM80.546 92.1a3.926 3.926 0 0 1 3.927 3.95c0 2.16-1.742 3.927-3.927 3.927s-3.95-1.766-3.95-3.927a3.945 3.945 0 0 1 3.95-3.95zM56.545 0v17.96l-15.48-8.992zM53.617 99.21V67.797l15.22-15.218a3.85 3.85 0 0 0 1.114-2.72c0-1-.37-1.975-1.114-2.718a3.857 3.857 0 0 0-5.46 0l-17.472 17.45V99.21h7.713z"/></svg>