<svg version="1" xmlns="http://www.w3.org/2000/svg" width="99.018" height="100"><path d="M24.406 27.184c3.718 0 6.715-2.997 6.715-6.714s-2.997-6.738-6.715-6.738c-3.694 0-6.714 3.021-6.714 6.738s3.02 6.714 6.714 6.714zm-10.339 1.394a1.91 1.91 0 0 0-1.395-2.323l-5.599-1.371c-1.045-.209-2.091.395-2.324 1.44L.056 45.794c-.256.999.372 2.044 1.417 2.3l5.6 1.348c1.022.255 2.044-.372 2.3-1.417l4.694-19.447zM1.404 93.797c-.046.324-.093.65-.093.952a4.72 4.72 0 0 0 4.717 4.717 4.704 4.704 0 0 0 4.53-3.369L18.691 62.5l7.713 33.41c.511 2.045 2.394 3.556 4.577 3.556 2.625 0 4.74-2.114 4.74-4.717 0-.349-.046-.697-.116-1.022l-10.618-44.4.906-3.88.674 3.066c.65 1.998 2.486 2.208 2.486 2.208l10.943 2.788c.209.047.418.047.65.047a3.236 3.236 0 0 0 3.229-3.229 3.238 3.238 0 0 0-2.486-3.137l-9.479-2.37-2.603-10.571c-1.231-5.878-6.854-5.739-6.854-5.739-5.483-.139-6.854 5.599-6.854 5.599L1.404 93.797zm89.713 2.276c0-2.184 1.72-3.95 3.95-3.95a3.962 3.962 0 0 1 3.95 3.95c0 2.161-1.789 3.927-3.95 3.927a3.913 3.913 0 0 1-3.95-3.927zm3.95-10.594a3.913 3.913 0 0 1-3.95-3.927c0-2.184 1.72-3.95 3.95-3.95a3.962 3.962 0 0 1 3.95 3.95c.001 2.161-1.788 3.927-3.95 3.927zm-.023-14.522a3.927 3.927 0 0 1-3.95-3.927 3.917 3.917 0 0 1 3.95-3.949 3.946 3.946 0 0 1 3.95 3.949c0 2.161-1.789 3.927-3.95 3.927zm0-14.521a3.927 3.927 0 0 1-3.95-3.926 3.917 3.917 0 0 1 3.95-3.95 3.946 3.946 0 0 1 3.95 3.95c0 2.16-1.789 3.926-3.95 3.926zm0-14.522a3.927 3.927 0 0 1-3.95-3.926 3.917 3.917 0 0 1 3.95-3.95 3.927 3.927 0 0 1 3.927 3.95 3.937 3.937 0 0 1-3.927 3.926zm0-14.521a3.913 3.913 0 0 1-3.95-3.927c0-2.23 1.72-3.95 3.95-3.95a3.912 3.912 0 0 1 3.927 3.95 3.937 3.937 0 0 1-3.927 3.927zm-3.95-18.448c0-2.23 1.72-3.95 3.95-3.95a3.913 3.913 0 0 1 3.927 3.95 3.937 3.937 0 0 1-3.927 3.926 3.911 3.911 0 0 1-3.95-3.926zM66.002 4.972c2.184 0 3.926 1.743 3.926 3.974 0 2.137-1.742 3.926-3.926 3.926-2.185 0-3.95-1.789-3.95-3.926 0-2.231 1.765-3.974 3.95-3.974zm14.521-.023c2.184 0 3.926 1.766 3.926 3.973 0 2.138-1.742 3.927-3.926 3.927-2.185 0-3.951-1.789-3.951-3.927a3.953 3.953 0 0 1 3.951-3.973zM66.002 92.101a3.961 3.961 0 0 1 3.949 3.949c0 2.161-1.789 3.927-3.949 3.927a3.927 3.927 0 0 1-3.95-3.927 3.93 3.93 0 0 1 3.95-3.949zm14.544 0a3.926 3.926 0 0 1 3.927 3.949c0 2.161-1.742 3.927-3.927 3.927s-3.95-1.766-3.95-3.927a3.945 3.945 0 0 1 3.95-3.949zM56.545 0v17.96l-15.48-8.992zm-2.928 99.21V67.797l15.219-15.218a3.85 3.85 0 0 0 1.115-2.719 3.81 3.81 0 0 0-1.115-2.718 3.857 3.857 0 0 0-5.46 0L45.904 64.591V99.21h7.713z"/></svg>