<svg xmlns="http://www.w3.org/2000/svg" viewBox="-240.1 356.7 52.6 52.6"><circle cx="-213.8" cy="383" r="3.7"/><path d="M-190.1 380.4h-1.6c-1.2-10.2-9.3-18.3-19.5-19.5v-1.6c0-1.4-1.2-2.6-2.6-2.6-1.4 0-2.6 1.2-2.6 2.6v1.6c-10.2 1.2-18.3 9.3-19.5 19.5h-1.6c-1.4 0-2.6 1.2-2.6 2.6s1.2 2.6 2.6 2.6h1.6c1.2 10.2 9.3 18.3 19.5 19.5v1.6c0 1.4 1.2 2.6 2.6 2.6 1.4 0 2.6-1.2 2.6-2.6v-1.6c10.2-1.2 18.3-9.3 19.5-19.5h1.6c1.4 0 2.6-1.2 2.6-2.6s-1.2-2.6-2.6-2.6zm-21.1 19.4v-5.7c0-1.4-1.2-2.6-2.6-2.6-1.4 0-2.6 1.2-2.6 2.6v5.7c-7.3-1.1-13.1-6.9-14.2-14.2h5.7c1.4 0 2.6-1.2 2.6-2.6s-1.2-2.6-2.6-2.6h-5.7c1.1-7.3 6.9-13.1 14.2-14.2v5.7c0 1.4 1.2 2.6 2.6 2.6 1.4 0 2.6-1.2 2.6-2.6v-5.7c7.3 1.1 13.1 6.9 14.2 14.2h-5.7c-1.4 0-2.6 1.2-2.6 2.6s1.2 2.6 2.6 2.6h5.7c-1.1 7.3-6.9 13.1-14.2 14.2z"/></svg>