<svg xmlns="http://www.w3.org/2000/svg" viewBox="0 0 97.5 69.7"><path d="M90.1 6.3c-1.1-.5-2.4-.8-2.4-.8-.5-.1-1.6-.3-2.3-.3-5.6 0-11.6 5-14.8 12.5-1.9 4.3-2.5 8.8-1.9 12.8.6 4 2.6 7.1 5.4 8.6l-3 6.6c-.6.2-1.2.4-1.8.8L57.9 54S41.6 29.4 41.5 29.3c-1.9-3.5-8.1-6.9-13.9-5.2C13.7 28.3 1.5 54.3 0 69.7h42l.8-10.3-12.2-18.6c-.4-.5-.2-1.3.3-1.6.5-.4 1.3-.2 1.6.3l18.2 27.6c1.3 1.7 3.2 2.6 5.2 2.6 1.2 0 2.5-.4 3.6-1.1l16.9-11.2c3-2 3.9-6.1 1.9-9.1-.8-1.2-1.9-2-3.2-2.5l2.3-5.1c1 .3 2.1.5 3.2.5 2.3 0 4.6-.8 6.9-2.3 3.2-2.2 6-5.8 8-10.3 4.1-9.4 1.6-18.8-5.4-22.3zM89.7 26c-2.6 6-7.5 10.5-11.7 10.5-.8 0-1.5-.1-2.1-.4-2-.9-3.4-3-3.9-6.1-.5-3.3.1-7.2 1.7-10.9C76.3 13 81.3 8.6 85.5 8.6c.8 0 1.5.1 2.1.4 4.3 1.8 5.3 9.6 2.1 17z"/><path d="M43.3 26c6.6 3.9 15.2 1.7 19.1-4.9 3.9-6.6 1.7-15.2-4.9-19.2C50.9-2 42.4.2 38.4 6.9c-3.9 6.6-1.7 15.2 4.9 19.1zm38.2-9.8c1.2-1.2 2.5-1.7 3.4-1.4.6.2 1 .6 1.4 1.3.3.5.9.7 1.4.4.5-.3.7-.9.4-1.4-.6-1.2-1.5-2-2.6-2.3-1.7-.6-3.7.1-5.5 1.9-1.6 1.6-3 3.9-3.9 6.6-.5 1.7-.8 3.4-.9 4.9 0 .6.4 1 1 1.1.6 0 1-.4 1-1 0-1.4.3-2.9.8-4.4.9-2.3 2.1-4.3 3.5-5.7z"/></svg>