<svg xmlns="http://www.w3.org/2000/svg" viewBox="0 0 50 50"><path d="M45.88 11.416a2.833 2.833 0 0 0-.953-3.022 2.818 2.818 0 0 0-1.767-.618c-.498 0-.996.13-1.443.397-.888.52-1.817.94-2.787 1.234A10.756 10.756 0 0 0 32.414 7.2c-5.416 0-9.903 4.04-10.61 9.264a19.624 19.624 0 0 1-11.086-6.78A2.828 2.828 0 0 0 8.522 8.64a2.835 2.835 0 0 0-2.448 1.408 10.686 10.686 0 0 0-1.453 5.385c0 1.28.228 2.525.648 3.688a2.853 2.853 0 0 0-.714 1.885c0 2.808 1.06 5.39 2.826 7.33-.11.484-.092.996.067 1.486a10.68 10.68 0 0 0 3.175 4.82 13.098 13.098 0 0 1-4.446.23 2.82 2.82 0 0 0-2.995 1.864 2.834 2.834 0 0 0 1.134 3.34 25.18 25.18 0 0 0 13.602 3.985c15.655 0 25.063-12.6 25.232-24.9a18.765 18.765 0 0 0 3.343-3.728 2.843 2.843 0 0 0-.613-4.016zM40.292 17.8c.018.338.025.678.025 1.02 0 10.403-7.92 22.4-22.4 22.4a22.295 22.295 0 0 1-12.07-3.538c.613.068 1.243.11 1.878.11 3.69 0 7.083-1.26 9.78-3.372a7.88 7.88 0 0 1-7.358-5.467 7.862 7.862 0 0 0 3.553-.134c-3.602-.728-6.317-3.906-6.317-7.724v-.098a7.857 7.857 0 0 0 3.567.982 7.872 7.872 0 0 1-3.5-6.554c0-1.442.388-2.793 1.066-3.956a22.34 22.34 0 0 0 16.227 8.224 7.796 7.796 0 0 1-.202-1.795 7.87 7.87 0 0 1 7.87-7.87c2.267 0 4.314.956 5.75 2.483a15.71 15.71 0 0 0 5-1.91 7.91 7.91 0 0 1-3.462 4.355c1.59-.188 3.106-.61 4.52-1.24a15.817 15.817 0 0 1-3.926 4.083z"/></svg>