<svg id="Layer_1" xmlns="http://www.w3.org/2000/svg" viewBox="0 0 65 47.5"><style>.st0{stroke-miterlimit:10}</style><path class="st0" d="M63.5 37.2h-4.1V5.5c0-2.8-2.2-5-5-5H10.6c-2.8 0-5 2.2-5 5v31.8H1.5c-.6 0-1 .4-1 1v2.9c0 3.2 2.6 5.8 5.8 5.8h52.4c3.2 0 5.8-2.6 5.8-5.8v-2.9c0-.6-.4-1.1-1-1.1zM7.6 5.5c0-1.7 1.3-3 3-3h43.8c1.7 0 3 1.3 3 3v31.8H7.6V5.5zm54.9 35.6c0 2.1-1.7 3.8-3.8 3.8H6.3c-2.1 0-3.8-1.7-3.8-3.8v-1.9h60v1.9z"/><path class="st0" d="M27.7 43.1h9.6c.6 0 1-.4 1-1s-.4-1-1-1h-9.6c-.6 0-1 .4-1 1s.4 1 1 1z"/></svg>