<svg xmlns="http://www.w3.org/2000/svg" width="575.279" height="434.521" viewBox="12.24 105.3 575.279 434.521"><path d="M55.08 490.86h226.44V380.7H55.08v110.16zm18.36-91.8h189.72v73.44H73.44v-73.44zm-18.36-42.84h483.48V197.1H55.08v159.12zm272.995-81.549L520.2 215.644v118.055l-192.125-59.028zM478.7 337.86H121.06l178.82-54.939L478.7 337.86zm-178.82-69.737L128.459 215.46h342.842L299.88 268.123zm-34.315 6.548L73.44 333.698V215.644l192.125 59.027zM336.6 429.66h195.841v18.359H336.6zm0-30.6h195.841v18.36H336.6zm0 61.2h195.841v18.36H336.6z"/><circle cx="315.339" cy="405.786" r="10.894"/><circle cx="315.339" cy="436.9" r="10.894"/><circle cx="315.339" cy="468.014" r="10.894"/><path d="M587.52 124.499c0-10.6-8.592-19.199-19.198-19.199H31.438c-10.606 0-19.198 8.599-19.198 19.199v396.123c0 10.606 8.592 19.199 19.198 19.199h536.89c10.6 0 19.191-8.593 19.191-19.199V124.499zm-470.854-.429c6.004 0 10.875 4.865 10.875 10.875s-4.872 10.875-10.875 10.875-10.875-4.865-10.875-10.875 4.871-10.875 10.875-10.875zm-30.925 0c6.004 0 10.875 4.865 10.875 10.875s-4.865 10.875-10.875 10.875-10.875-4.865-10.875-10.875 4.871-10.875 10.875-10.875zm-30.924 0c6.01 0 10.881 4.865 10.881 10.875s-4.872 10.875-10.881 10.875c-6.004 0-10.869-4.865-10.869-10.875s4.865-10.875 10.869-10.875zM556.92 509.22H42.84V154.26h128.52v18.36h385.56v336.6z"/></svg>