<svg version="1" xmlns="http://www.w3.org/2000/svg" width="100" height="87.717" viewBox="0 0 100 87.717"><path d="M34.242 18.556c5.134 0 9.272-4.162 9.272-9.284A9.262 9.262 0 0 0 34.242 0a9.27 9.27 0 0 0-9.27 9.272c0 5.123 4.148 9.284 9.27 9.284z"/><path d="M.023 69.268c2.17 0 4.257-.498 6.13-1.34 1.92-.89 4.09-1.41 6.343-1.41s4.423.52 6.332 1.41a15.15 15.15 0 0 0 6.177 1.328c2.182 0 4.28-.486 6.154-1.328 1.908-.89 4.078-1.41 6.342-1.41 2.253 0 4.41.52 6.344 1.41 1.86.842 3.972 1.328 6.153 1.328s4.29-.486 6.153-1.328c1.932-.89 4.09-1.41 6.354-1.41 2.253 0 4.41.52 6.332 1.41a15.132 15.132 0 0 0 6.164 1.328 15.1 15.1 0 0 0 6.166-1.328 15.033 15.033 0 0 1 11.833-.38c2.75-3.012 4.458-7.02 4.458-11.406 0-9.343-7.563-16.907-16.895-16.907l-1.896.2c-2.076 8.432-10.507 8.787-10.507 8.787l-38.58-.012-3.226-1.897 7.778-13.054 8.513 4.92c5.098 3.307 7.754-1.33 7.754-1.33l8.537-13.92c3.71-6.046-4.163-10.895-7.85-4.825l-5.977 9.758-14.205-7.86c-9.84-5.49-14.015 3.603-14.015 3.603L5.74 42.72c-1.898 3.972-.203 5.68-.203 5.68l-5.514-.013v20.88zM100 87.717c-2.182 0-4.28-.486-6.142-1.328a15.19 15.19 0 0 0-6.355-1.412c-2.253 0-4.423.52-6.33 1.41a15.1 15.1 0 0 1-6.167 1.33c-2.182 0-4.28-.487-6.165-1.33-1.92-.89-4.078-1.41-6.33-1.41-2.266 0-4.424.52-6.355 1.41-1.862.843-3.973 1.33-6.154 1.33s-4.29-.487-6.152-1.33a15.18 15.18 0 0 0-6.344-1.41c-2.265 0-4.435.52-6.343 1.41a15.04 15.04 0 0 1-6.153 1.33 15.15 15.15 0 0 1-6.177-1.33c-1.91-.89-4.08-1.41-6.332-1.41s-4.423.52-6.343 1.41A15.066 15.066 0 0 1 0 87.72V78.49c2.182 0 4.28-.498 6.154-1.34 1.92-.89 4.09-1.41 6.343-1.41s4.423.52 6.332 1.41a15.157 15.157 0 0 0 6.176 1.34c2.182 0 4.28-.498 6.154-1.34 1.91-.89 4.08-1.41 6.343-1.41 2.253 0 4.41.52 6.344 1.41 1.86.842 3.972 1.34 6.153 1.34s4.292-.498 6.154-1.34c1.932-.89 4.09-1.41 6.354-1.41 2.253 0 4.41.52 6.332 1.41 1.885.842 3.983 1.34 6.165 1.34 2.193 0 4.28-.498 6.166-1.34a15.033 15.033 0 0 1 6.332-1.41c2.265 0 4.423.52 6.355 1.41 1.86.842 3.96 1.34 6.142 1.34v9.225z"/></svg>