<svg version="1" xmlns="http://www.w3.org/2000/svg" width="99.999" height="92.963" viewBox="0 0 99.999 92.963"><path d="M58.77 63.407a4.08 4.08 0 0 0 4.085-4.097c0-2.26-1.817-4.097-4.084-4.097s-4.107 1.837-4.107 4.097a4.102 4.102 0 0 0 4.108 4.097zm40.594 29.536c-24.28.36-49.657-4.284-69.082-19.887-.125-.11-.174-.26-.174-.436 0-.373.3-.66.647-.66l19.15.025c.922 0 1.694-.76 1.694-1.693 0-.697-.325-1.183-1.072-1.557L33.22 60.473c-.324-.2-.548-.56-.548-.97 0-.313.125-.593.324-.804 0 0 21.093-18.642 66.368-18.23v52.473zM90.112.003C75.12.17 60.44 6.565 43.98 20.07c-.618-.17-1.968-.53-1.968-.53-2.615 0-4.744 2.117-4.744 4.725 0 0 .187.884.3 1.426L24.26 38.175 12.95 48.84a5.34 5.34 0 0 1-3.873 1.387 5.293 5.293 0 0 1-3.698-1.742 5.355 5.355 0 0 1-1.383-3.605c0-1.457.585-2.907 1.737-3.96 0 0 .853-.472 1.5-.84.138.966.536 3.93.536 3.93l9.227-11.755-10.18 3.466c-2.683.923-3.786 2.273-3.83 2.33-3.728 3.375-4.02 9.29-.572 13.105 3.468 3.823 9.39 4.098 13.205.636l.1-.123 10.728-10.21S39.69 28.93 40.12 28.516c.64.17 1.893.487 1.893.487 2.603 0 4.72-2.123 4.72-4.738 0 0-.125-.69-.22-1.19 15.92-13.1 29.853-19.312 43.8-19.474 2.863-.03 5.154.35 8.915 1.152l.77.168v-3.73l-.497-.106C95.617.258 93.064-.034 90.113.003z"/></svg>