<svg version="1" xmlns="http://www.w3.org/2000/svg" width="100" height="52.269" viewBox="0 0 100 52.269"><path d="M54.366 39.622a9.124 9.124 0 0 0 7.075-8.892 9.12 9.12 0 0 0-9.12-9.12c-5.04 0-9.122 4.084-9.122 9.12a9.102 9.102 0 0 0 3.522 7.2L0 27.607v24.628l51.166.035c2.298 0 4.317-1.2 5.467-3.004a6.48 6.48 0 0 0 10.937 0 6.478 6.478 0 0 0 10.935 0c1.15 1.802 3.168 3 5.468 3s4.32-1.198 5.468-3.002a6.474 6.474 0 0 0 5.468 3.003 6.472 6.472 0 0 0 5.094-2.476L54.366 39.622zM47.55 30.73a4.77 4.77 0 1 1 9.54.003 4.77 4.77 0 0 1-9.54-.003z"/><path d="M92.986 36.3l-30.62-6.66a10.175 10.175 0 0 1-.275 3.674l30.12 6.552.776-3.565M4.54 17.063l-.775 3.565 38.596 8.396c.212-1.245.653-2.41 1.277-3.457L4.54 17.063M33.647 7.917L44.18 1.953 43.075 0 30.352 7.205 9.378 2.667c.142 13.05 14.454 16.838 14.454 16.838l20.978 4.47a10.076 10.076 0 0 1 7.51-3.346c4.496 0 8.306 2.935 9.617 6.994l26.45 5.634 6.595-12.07L33.647 7.92"/></svg>