<?xml version="1.0" encoding="utf-8"?>
<!-- Generator: Adobe Illustrator 19.1.0, SVG Export Plug-In . SVG Version: 6.00 Build 0)  -->
<svg version="1.1" id="Layer_1" xmlns="http://www.w3.org/2000/svg" xmlns:xlink="http://www.w3.org/1999/xlink" x="0px" y="0px"
	 viewBox="-295.9 385.6 17.8 17.8" style="enable-background:new -295.9 385.6 17.8 17.8;" xml:space="preserve">
<path d="M-278.1,394.5L-278.1,394.5c0-0.6-0.4-1-1-1h-0.1c-0.4-3.6-3.3-6.4-6.8-6.8v-0.1c0-0.5-0.4-1-0.9-1c0,0,0,0-0.1,0s0,0-0.1,0
	c-0.5,0-0.9,0.5-0.9,1v0.1c-3.5,0.4-6.4,3.3-6.8,6.8h-0.1c-0.5,0-1,0.4-1,0.9c0,0,0,0,0,0.1c0,0,0,0,0,0.1c0,0.5,0.4,0.9,1,0.9h0.1
	c0.4,3.6,3.3,6.4,6.8,6.8v0.1c0,0.5,0.4,1,0.9,1c0,0,0,0,0.1,0c0,0,0,0,0.1,0c0.5,0,0.9-0.4,0.9-1v-0.1c3.6-0.4,6.4-3.3,6.8-6.8h0.1
	C-278.6,395.5-278.1,395.1-278.1,394.5L-278.1,394.5z M-286,400.3v-0.9c0-0.5-0.4-1-1-1s-1,0.4-1,1v0.9c-2.5-0.4-4.4-2.4-4.8-4.8
	h0.9c0.5,0,1-0.4,1-1s-0.4-1-1-1h-0.9c0.4-2.5,2.3-4.4,4.8-4.8v0.9c0,0.5,0.4,1,1,1s1-0.4,1-1v-0.9c2.5,0.4,4.4,2.4,4.8,4.8h-0.9
	c-0.5,0-1,0.4-1,1s0.4,1,1,1h0.9C-281.6,398-283.5,399.9-286,400.3z"/>
</svg>
