<?xml version="1.0" encoding="utf-8"?>
<!-- Generator: Adobe Illustrator 19.1.0, SVG Export Plug-In . SVG Version: 6.00 Build 0)  -->
<svg version="1.1" id="Layer_1" xmlns="http://www.w3.org/2000/svg" xmlns:xlink="http://www.w3.org/1999/xlink" x="0px" y="0px"
	 viewBox="260.8 -312.3 1133.9 1133.9" style="enable-background:new 260.8 -312.3 1133.9 1133.9;" xml:space="preserve">
<path d="M827.7-312.3c-313.1,0-566.9,253.8-566.9,566.9s253.8,566.9,566.9,566.9s566.9-253.8,566.9-566.9S1140.8-312.3,827.7-312.3z
	 M815.9-108.4c39.8,0,73.4,32.6,73.4,73.4s-33.6,73.4-73.4,73.4c-39.7,0-73.4-32.6-73.4-73.4S776.2-108.4,815.9-108.4z M980,579.6
	H681.4v-67.3h46.9c28.6,0,40.8-11.2,40.8-40.8V210.6c0-29.6-12.2-40.8-40.8-40.8h-46.9v-67.3h207.9v369c0,29.6,12.2,40.8,40.8,40.8
	H980L980,579.6L980,579.6z"/>
</svg>
