<?xml version="1.0" encoding="utf-8"?>
<!-- Generator: Adobe Illustrator 19.1.0, SVG Export Plug-In . SVG Version: 6.00 Build 0)  -->
<svg version="1.1" id="Layer_1" xmlns="http://www.w3.org/2000/svg" xmlns:xlink="http://www.w3.org/1999/xlink" x="0px" y="0px"
	 viewBox="-240.1 356.7 52.6 52.6" style="enable-background:new -240.1 356.7 52.6 52.6;" xml:space="preserve">
<circle cx="-213.8" cy="383" r="3.7"/>
<path d="M-190.1,380.4h-1.6c-1.2-10.2-9.3-18.3-19.5-19.5v-1.6c0-1.4-1.2-2.6-2.6-2.6c-1.4,0-2.6,1.2-2.6,2.6v1.6
	c-10.2,1.2-18.3,9.3-19.5,19.5h-1.6c-1.4,0-2.6,1.2-2.6,2.6s1.2,2.6,2.6,2.6h1.6c1.2,10.2,9.3,18.3,19.5,19.5v1.6
	c0,1.4,1.2,2.6,2.6,2.6c1.4,0,2.6-1.2,2.6-2.6v-1.6c10.2-1.2,18.3-9.3,19.5-19.5h1.6c1.4,0,2.6-1.2,2.6-2.6
	S-188.7,380.4-190.1,380.4z M-211.2,399.8v-5.7c0-1.4-1.2-2.6-2.6-2.6c-1.4,0-2.6,1.2-2.6,2.6v5.7c-7.3-1.1-13.1-6.9-14.2-14.2h5.7
	c1.4,0,2.6-1.2,2.6-2.6s-1.2-2.6-2.6-2.6h-5.7c1.1-7.3,6.9-13.1,14.2-14.2v5.7c0,1.4,1.2,2.6,2.6,2.6c1.4,0,2.6-1.2,2.6-2.6v-5.7
	c7.3,1.1,13.1,6.9,14.2,14.2h-5.7c-1.4,0-2.6,1.2-2.6,2.6s1.2,2.6,2.6,2.6h5.7C-198.1,392.9-203.9,398.7-211.2,399.8L-211.2,399.8z"
	/>
</svg>
