<svg xmlns="http://www.w3.org/2000/svg" width="90" height="90" viewBox="4.5 -9.0 90.0 121.5"><circle cx="45.001" cy="45.001" r="5"/><path d="M77.002 41.5h-2.21C73.19 27.73 62.27 16.813 48.5 15.21V13a3.5 3.5 0 0 0-7 0v2.213C27.73 16.813 16.81 27.733 15.21 41.5h-2.214a3.5 3.5 0 0 0 0 7h2.213c1.602 13.77 12.522 24.69 26.29 26.29v2.212a3.5 3.5 0 0 0 7 0v-2.21C62.27 73.19 73.19 62.27 74.79 48.5h2.212a3.5 3.5 0 0 0 0-7zm-28.5 26.235V60a3.5 3.5 0 0 0-7 0v7.735c-9.887-1.516-17.72-9.35-19.235-19.234H30a3.5 3.5 0 0 0 0-7h-7.733c1.516-9.885 9.35-17.717 19.234-19.233V30a3.5 3.5 0 0 0 7 0v-7.733c9.887 1.516 17.72 9.35 19.235 19.234H60a3.5 3.5 0 0 0 0 7h7.735C66.22 58.388 58.387 66.22 48.5 67.736z"/><text y="105.75" font-size="4.5" font-weight="bold" font-family="Helvetica Neue, Helvetica, Arial-Unicode, Arial, Sans-serif">Created by José Manuel de Laá</text><text y="110.25" font-size="4.5" font-weight="bold" font-family="Helvetica Neue, Helvetica, Arial-Unicode, Arial, Sans-serif">from the Noun Project</text></svg>