<?xml version="1.0" encoding="utf-8"?>
<!-- Generator: Adobe Illustrator 19.1.0, SVG Export Plug-In . SVG Version: 6.00 Build 0)  -->
<svg version="1.1" id="XMLID_1_" xmlns="http://www.w3.org/2000/svg" xmlns:xlink="http://www.w3.org/1999/xlink" x="0px" y="0px"
	 viewBox="0 0 16 13" style="enable-background:new 0 0 16 13;" xml:space="preserve">
<path d="M3.5,6.5C3.5,4,5.5,2,8,2c0.6,0,1.2,0.1,1.7,0.3l1.5-1.5C10.2,0.3,9.2,0,8,0C4.4,0,1.5,2.9,1.5,6.5H0L2.5,9L5,6.5H3.5z
	 M13.5,4L11,6.5h1.5c0,2.5-2,4.5-4.5,4.5c-0.6,0-1.2-0.1-1.7-0.3l-1.5,1.5c1,0.5,2,0.8,3.2,0.8c3.6,0,6.5-2.9,6.5-6.5H16L13.5,4z"/>
</svg>
