<?xml version="1.0" encoding="utf-8"?>
<!-- Generator: Adobe Illustrator 16.0.0, SVG Export Plug-In . SVG Version: 6.00 Build 0)  -->
<!DOCTYPE svg PUBLIC "-//W3C//DTD SVG 1.1//EN" "http://www.w3.org/Graphics/SVG/1.1/DTD/svg11.dtd">
<svg version="1.1" id="Layer_1" xmlns="http://www.w3.org/2000/svg" xmlns:xlink="http://www.w3.org/1999/xlink" x="0px" y="0px"
	 width="575.279px" height="434.521px" viewBox="12.24 105.3 575.279 434.521" enable-background="new 12.24 105.3 575.279 434.521"
	 xml:space="preserve">
<g>
	<path d="M55.08,490.86h226.44V380.7H55.08V490.86z M73.44,399.06h189.72v73.44H73.44V399.06z"/>
	<path d="M55.08,356.22H538.56V197.1H55.08V356.22z M328.075,274.671L520.2,215.644v118.055L328.075,274.671z M478.7,337.86H121.06
		l178.82-54.939L478.7,337.86z M299.88,268.123L128.459,215.46h342.842L299.88,268.123z M265.565,274.671L73.44,333.698V215.644
		L265.565,274.671z"/>
	<rect x="336.6" y="429.66" width="195.841" height="18.359"/>
	<rect x="336.6" y="399.06" width="195.841" height="18.36"/>
	<rect x="336.6" y="460.26" width="195.841" height="18.36"/>
	<circle cx="315.339" cy="405.786" r="10.894"/>
	<circle cx="315.339" cy="436.9" r="10.894"/>
	<circle cx="315.339" cy="468.014" r="10.894"/>
	<path d="M587.52,124.499c0-10.6-8.592-19.199-19.198-19.199H31.438c-10.606,0-19.198,8.599-19.198,19.199v396.123
		c0,10.606,8.592,19.199,19.198,19.199h536.89c10.6,0,19.191-8.593,19.191-19.199V124.499z M116.666,124.07
		c6.004,0,10.875,4.865,10.875,10.875s-4.872,10.875-10.875,10.875s-10.875-4.865-10.875-10.875S110.662,124.07,116.666,124.07z
		 M85.741,124.07c6.004,0,10.875,4.865,10.875,10.875s-4.865,10.875-10.875,10.875s-10.875-4.865-10.875-10.875
		S79.737,124.07,85.741,124.07z M54.817,124.07c6.01,0,10.881,4.865,10.881,10.875s-4.872,10.875-10.881,10.875
		c-6.004,0-10.869-4.865-10.869-10.875S48.813,124.07,54.817,124.07z M556.92,509.22H42.84V184.475v-12.968V154.26h128.52v18.36
		h385.56V509.22z"/>
</g>
</svg>
